<svg width="32" height="32" viewBox="0 0 32 32" fill="none" xmlns="http://www.w3.org/2000/svg" xmlns:xlink="http://www.w3.org/1999/xlink">
<path d="M27.3,4.699C24.4,1.799 20.42,-0.001 16,-0.001C7.16,-0.001 0.02,7.159 0.02,15.999C0.02,24.839 7.16,31.999 16,31.999C23.46,31.999 29.68,26.899 31.46,19.999L27.3,19.999C25.66,24.659 21.22,27.999 16,27.999C9.38,27.999 4,22.619 4,15.999C4,9.379 9.38,3.999 16,3.999C19.32,3.999 22.28,5.379 24.44,7.559L18,13.999L32,13.999L32,-0.001L27.3,4.699Z" fill="#79747E"/>
</svg>
