<svg width="40" height="40" viewBox="0 0 40 40" fill="none" xmlns="http://www.w3.org/2000/svg" xmlns:xlink="http://www.w3.org/1999/xlink">
<path d="M18,30L22,30L22,22L30,22L30,18L22,18L22,10L18,10L18,18L10,18L10,22L18,22L18,30ZM20,40C17.233,40 14.633,39.483 12.2,38.45C9.767,37.383 7.65,35.95 5.85,34.15C4.05,32.35 2.617,30.233 1.55,27.8C0.517,25.367 0,22.767 0,20C0,17.233 0.517,14.633 1.55,12.2C2.617,9.767 4.05,7.65 5.85,5.85C7.65,4.05 9.767,2.633 12.2,1.6C14.633,0.533 17.233,0 20,0C22.767,0 25.367,0.533 27.8,1.6C30.233,2.633 32.35,4.05 34.15,5.85C35.95,7.65 37.367,9.767 38.4,12.2C39.467,14.633 40,17.233 40,20C40,22.767 39.467,25.367 38.4,27.8C37.367,30.233 35.95,32.35 34.15,34.15C32.35,35.95 30.233,37.383 27.8,38.45C25.367,39.483 22.767,40 20,40ZM20,36C24.467,36 28.25,34.45 31.35,31.35C34.45,28.25 36,24.467 36,20C36,15.533 34.45,11.75 31.35,8.65C28.25,5.55 24.467,4 20,4C15.533,4 11.75,5.55 8.65,8.65C5.55,11.75 4,15.533 4,20C4,24.467 5.55,28.25 8.65,31.35C11.75,34.45 15.533,36 20,36Z" fill="#1D1B20"/>
</svg>
