<svg width="20" height="28" viewBox="0 0 20 28" fill="none" xmlns="http://www.w3.org/2000/svg" xmlns:xlink="http://www.w3.org/1999/xlink">
<g opacity="0.65">
<path d="M17.04,8.881L15.76,8.881L15.76,6.321C15.76,2.788 12.893,-0.079 9.36,-0.079C5.827,-0.079 2.96,2.788 2.96,6.321L2.96,8.881L1.68,8.881C0.272,8.881 -0.88,10.033 -0.88,11.441L-0.88,24.241C-0.88,25.649 0.272,26.801 1.68,26.801L17.04,26.801C18.448,26.801 19.6,25.649 19.6,24.241L19.6,11.441C19.6,10.033 18.448,8.881 17.04,8.881ZM9.36,20.401C7.952,20.401 6.8,19.249 6.8,17.841C6.8,16.433 7.952,15.281 9.36,15.281C10.768,15.281 11.92,16.433 11.92,17.841C11.92,19.249 10.768,20.401 9.36,20.401ZM13.328,8.881L5.392,8.881L5.392,6.321C5.392,4.132 7.171,2.353 9.36,2.353C11.549,2.353 13.328,4.132 13.328,6.321L13.328,8.881Z" fill="#49454F"/>
</g>
</svg>
