<svg width="8" height="32" viewBox="0 0 8 32" fill="none" xmlns="http://www.w3.org/2000/svg" xmlns:xlink="http://www.w3.org/1999/xlink">
<path d="M4,7.999C6.2,7.999 8,6.199 8,3.999C8,1.799 6.2,-0.001 4,-0.001C1.8,-0.001 0,1.799 0,3.999C0,6.199 1.8,7.999 4,7.999ZM4,11.999C1.8,11.999 0,13.799 0,15.999C0,18.199 1.8,19.999 4,19.999C6.2,19.999 8,18.199 8,15.999C8,13.799 6.2,11.999 4,11.999ZM4,23.999C1.8,23.999 0,25.799 0,27.999C0,30.199 1.8,31.999 4,31.999C6.2,31.999 8,30.199 8,27.999C8,25.799 6.2,23.999 4,23.999Z" fill="#79747E"/>
</svg>
